# xmcd
#
# Track frame offsets:
#	150
#	11085
#	19494
#	34167
#	42305
#	52500
#	63097
#	73857
#
# Disc length: 1099 seconds
#
# Revision: 1
# Processed by: cddbd v1.4PL0 Copyright (c) Steve Scherf et al.
# Submitted via: audiograbber 1.81.02
#
DISCID=64044908
DTITLE=Roger Miller - King of the Road
DYEAR=1900
DGENRE=Country
TTITLE0=King of the Road 
TTITLE1=You Can't Roller Skate in a Buffalo Herd
TTITLE2=Me And Bobby Mcgee
TTITLE3=In the Summertime
TTITLE4=Engine Engine #9
TTITLE5=When Two Worlds Collide
TTITLE6=Don't We All Have The Right
TTITLE7=Billy Bayou
EXTD=
EXTT0=
EXTT1=
EXTT2=
EXTT3=
EXTT4=
EXTT5=
EXTT6=
EXTT7=
PLAYORDER=
